<?xml version="1.0" encoding="UTF-8" standalone="no"?>
<!-- Created with Inkscape (http://www.inkscape.org/) -->

<svg
   xmlns:dc="http://purl.org/dc/elements/1.1/"
   xmlns:cc="http://creativecommons.org/ns#"
   xmlns:rdf="http://www.w3.org/1999/02/22-rdf-syntax-ns#"
   xmlns:svg="http://www.w3.org/2000/svg"
   xmlns="http://www.w3.org/2000/svg"
   xmlns:sodipodi="http://sodipodi.sourceforge.net/DTD/sodipodi-0.dtd"
   xmlns:inkscape="http://www.inkscape.org/namespaces/inkscape"
   width="32"
   height="32"
   viewBox="0 0 32 32.000001"
   id="svg2"
   version="1.1"
   inkscape:version="0.91 r13725"
   sodipodi:docname="fw.svg">
  <defs
     id="defs4" />
  <sodipodi:namedview
     id="base"
     pagecolor="#ffffff"
     bordercolor="#666666"
     borderopacity="1.0"
     inkscape:pageopacity="0.0"
     inkscape:pageshadow="2"
     inkscape:zoom="15.839192"
     inkscape:cx="21.325702"
     inkscape:cy="7.0486469"
     inkscape:document-units="px"
     inkscape:current-layer="layer1"
     showgrid="false"
     units="px"
     inkscape:window-width="1861"
     inkscape:window-height="1056"
     inkscape:window-x="1979"
     inkscape:window-y="24"
     inkscape:window-maximized="1" />
  <metadata
     id="metadata7">
    <rdf:RDF>
      <cc:Work
         rdf:about="">
        <dc:format>image/svg+xml</dc:format>
        <dc:type
           rdf:resource="http://purl.org/dc/dcmitype/StillImage" />
        <dc:title></dc:title>
      </cc:Work>
    </rdf:RDF>
  </metadata>
  <g
     inkscape:label="Layer 1"
     inkscape:groupmode="layer"
     id="layer1"
     transform="translate(0,-1020.3622)">
    <path
       style="fill:none;fill-rule:evenodd;stroke:#000000;stroke-width:1.62097549px;stroke-linecap:butt;stroke-linejoin:miter;stroke-opacity:1"
       d="m 13.307656,1023.0288 6.077025,-0.1272 3.531245,4.8463 -3.531245,4.7186 -5.830659,-0.3827 -4.106099,-4.2086 4.270342,-4.9736"
       id="path4138"
       inkscape:connector-curvature="0"
       sodipodi:nodetypes="ccccccc" />
    <path
       style="fill:none;fill-rule:evenodd;stroke:#000000;stroke-width:1.88606977px;stroke-linecap:butt;stroke-linejoin:miter;stroke-opacity:1"
       d="m 15.827704,1032.4409 -0.05643,11.2665 0.848802,6.145"
       id="path4146"
       inkscape:connector-curvature="0"
       sodipodi:nodetypes="ccc" />
    <path
       style="fill:none;fill-rule:evenodd;stroke:#000000;stroke-width:1.85895097px;stroke-linecap:butt;stroke-linejoin:miter;stroke-opacity:1"
       d="m 15.53406,1043.7982 -4.452884,5.3272"
       id="path4148"
       inkscape:connector-curvature="0"
       sodipodi:nodetypes="cc" />
    <path
       style="fill:none;fill-rule:evenodd;stroke:#000000;stroke-width:1.96058297px;stroke-linecap:butt;stroke-linejoin:miter;stroke-opacity:1"
       d="m 15.739748,1036.3506 -4.771649,2.5015"
       id="path4150"
       inkscape:connector-curvature="0"
       sodipodi:nodetypes="cc" />
    <path
       style="fill:none;fill-rule:evenodd;stroke:#000000;stroke-width:1.85895097px;stroke-linecap:butt;stroke-linejoin:miter;stroke-opacity:1"
       d="m 15.706539,1036.3715 4.612814,3.6696"
       id="path4152"
       inkscape:connector-curvature="0"
       sodipodi:nodetypes="cc" />
    <path
       style="opacity:0.6;fill:#000000;fill-opacity:1;stroke:#73b9c5;stroke-width:0.07999145;stroke-linecap:round;stroke-linejoin:round;stroke-miterlimit:4;stroke-dasharray:none;stroke-dashoffset:0;stroke-opacity:1"
       d="M 16.244584,11.064693 13.9477,10.907782 12.482003,9.4158756 C 11.675871,8.5953271 10.924901,7.8187246 10.813182,7.6900922 l -0.203124,-0.233877 1.701316,-1.981283 1.701317,-1.981283 1.816935,-0.0419 c 0.999315,-0.023045 2.117726,-0.041461 2.48536,-0.040925 l 0.668425,9.747e-4 1.04172,1.4321634 c 0.572946,0.7876899 1.221531,1.6814108 1.441299,1.9860464 l 0.39958,0.553883 -1.439013,1.92732 c -1.42848,1.9132113 -1.440649,1.9272583 -1.662271,1.9188563 -0.122791,-0.0047 -1.256855,-0.07907 -2.520142,-0.165375 z"
       id="path4185"
       inkscape:connector-curvature="0"
       transform="translate(0,1020.3622)" />
    <path
       style="opacity:0.6;fill:#ffffff;fill-opacity:1;stroke:#73b9c5;stroke-width:0.07999145;stroke-linecap:round;stroke-linejoin:round;stroke-miterlimit:4;stroke-dasharray:none;stroke-dashoffset:0;stroke-opacity:1"
       d="M 16.237059,11.00831 13.995783,10.857321 12.371856,9.2012416 C 11.478697,8.2903978 10.747125,7.5112423 10.746142,7.4697848 10.745159,7.4283274 11.485328,6.5333954 12.390963,5.481047 l 1.646608,-1.9133607 1.368066,-0.039351 c 0.752436,-0.021643 1.856381,-0.042951 2.45321,-0.047351 l 1.085145,-0.008 0.930766,1.2784743 c 0.511922,0.7031609 1.152399,1.5825149 1.423284,1.9541199 L 21.79056,7.381224 20.567468,9.0179942 c -1.519928,2.0340038 -1.630756,2.1599538 -1.891292,2.1493538 -0.108813,-0.0044 -1.206416,-0.07599 -2.439117,-0.159038 z"
       id="path4268"
       inkscape:connector-curvature="0"
       transform="translate(0,1020.3622)" />
    <path
       style="opacity:0.6;fill:#ffffff;fill-opacity:1;stroke:#73b9c5;stroke-width:0.07999145;stroke-linecap:round;stroke-linejoin:round;stroke-miterlimit:4;stroke-dasharray:none;stroke-dashoffset:0;stroke-opacity:1"
       d="M 16.154084,10.947024 14.019237,10.797632 12.710407,9.4555021 C 11.99055,8.717331 11.266016,7.9663525 11.100331,7.786661 L 10.799086,7.4599491 11.479025,6.6502394 C 12.462052,5.4795971 14.017181,3.6761247 14.073738,3.641171 14.100388,3.6247 15.201763,3.591411 16.521235,3.567196 l 2.399041,-0.044028 1.40046,1.928683 1.40046,1.928683 -1.199805,1.5975428 c -0.659892,0.8786488 -1.317322,1.7182872 -1.460955,1.8658642 -0.308976,0.31746 3.79e-4,0.306488 -2.906352,0.103083 z"
       id="path4270"
       inkscape:connector-curvature="0"
       transform="translate(0,1020.3622)" />
    <path
       style="opacity:0.6;fill:#ffffff;fill-opacity:1;stroke:#73b9c5;stroke-width:0.07999145;stroke-linecap:round;stroke-linejoin:round;stroke-miterlimit:4;stroke-dasharray:none;stroke-dashoffset:0;stroke-opacity:1"
       d="m 17.846989,11.007342 c -0.17362,-0.01399 -1.094697,-0.08017 -2.046838,-0.147068 L 14.068986,10.738647 13.790337,10.46773 C 13.637081,10.318725 12.916298,9.581175 12.188597,8.8287292 L 10.865504,7.4606461 12.335941,5.7441109 C 13.144682,4.8000165 13.877405,3.9472454 13.964215,3.849064 l 0.157837,-0.1785116 2.399112,-0.039888 2.399112,-0.039887 1.325826,1.8406426 c 0.729203,1.0123535 1.334972,1.8805827 1.346152,1.9293982 0.01764,0.077029 -1.945717,2.7109528 -2.532949,3.3980508 -0.192399,0.225119 -0.240179,0.247571 -0.553608,0.260149 -0.188669,0.0076 -0.485088,0.0023 -0.658708,-0.01168 z"
       id="path4272"
       inkscape:connector-curvature="0"
       transform="translate(0,1020.3622)" />
    <path
       style="opacity:0.6;fill:#ffffff;fill-opacity:1;stroke:#73b9c5;stroke-width:0.07999145;stroke-linecap:round;stroke-linejoin:round;stroke-miterlimit:4;stroke-dasharray:none;stroke-dashoffset:0;stroke-opacity:1"
       d="M 16.053676,10.82863 14.070959,10.67862 12.549709,9.1183944 C 11.713022,8.26027 11.019958,7.5232804 11.009567,7.4806398 10.993538,7.4148635 13.985472,3.8607923 14.133727,3.7695 c 0.0283,-0.017428 1.116855,-0.050154 2.419004,-0.072724 l 2.367545,-0.041036 0.726048,1.0237825 c 1.828881,2.5788631 1.886542,2.6669712 1.823036,2.7856336 -0.12201,0.2279775 -2.320477,3.1160109 -2.504047,3.2894609 -0.262045,0.247599 -0.527958,0.254358 -2.911637,0.07401 z"
       id="path4274"
       inkscape:connector-curvature="0"
       transform="translate(0,1020.3622)" />
    <path
       style="opacity:0.6;fill:#ffffff;fill-opacity:1;stroke:#73b9c5;stroke-width:0.07999145;stroke-linecap:round;stroke-linejoin:round;stroke-miterlimit:4;stroke-dasharray:none;stroke-dashoffset:0;stroke-opacity:1"
       d="m 16.647433,10.814685 c -0.17362,-0.01225 -0.818207,-0.06205 -1.432416,-0.110662 L 14.098273,10.615642 13.003669,9.4907763 C 12.401637,8.8721004 11.717481,8.1641916 11.483321,7.9176456 l -0.425744,-0.4482653 0.86277,-1.0353962 c 1.444136,-1.7330843 2.18757,-2.5793845 2.29181,-2.6089181 0.05461,-0.015474 1.136283,-0.045448 2.403709,-0.06661 l 2.30441,-0.038477 1.104855,1.5797638 c 0.60767,0.8688702 1.175016,1.7045504 1.260769,1.8570671 l 0.155915,0.2773032 -0.561649,0.7500044 c -0.864017,1.1537742 -1.814913,2.3759825 -1.971143,2.5335545 -0.134176,0.135328 -0.18357,0.141514 -1.043381,0.130673 -0.496395,-0.0063 -1.044589,-0.02141 -1.218209,-0.03366 z"
       id="path4276"
       inkscape:connector-curvature="0"
       transform="translate(0,1020.3622)" />
    <path
       style="opacity:0.6;fill:#ffffff;fill-opacity:1;stroke:#73b9c5;stroke-width:0.07999145;stroke-linecap:round;stroke-linejoin:round;stroke-miterlimit:4;stroke-dasharray:none;stroke-dashoffset:0;stroke-opacity:1"
       d="m 15.795117,10.696352 c -1.842459,-0.133799 -1.493678,0.05233 -3.196383,-1.7057868 l -1.47395,-1.5219199 1.08215,-1.2875669 c 0.595182,-0.7081618 1.290355,-1.5184397 1.544829,-1.8006177 l 0.462679,-0.5130508 2.311616,-0.046855 c 1.954081,-0.039608 2.325437,-0.033034 2.400974,0.042502 0.120722,0.1207215 2.201396,3.1254938 2.337533,3.3757106 l 0.108099,0.198682 -0.591481,0.7799033 c -1.209209,1.5944142 -1.843862,2.3928452 -1.975051,2.4847342 -0.169912,0.119012 -1.323466,0.116814 -3.011015,-0.0057 z"
       id="path4278"
       inkscape:connector-curvature="0"
       transform="translate(0,1020.3622)" />
    <path
       style="opacity:0.6;fill:#ffffff;fill-opacity:1;stroke:#73b9c5;stroke-width:0.07999145;stroke-linecap:round;stroke-linejoin:round;stroke-miterlimit:4;stroke-dasharray:none;stroke-dashoffset:0;stroke-opacity:1"
       d="M 15.711018,10.633858 C 14.795263,10.565708 14.455508,10.515936 14.232413,10.417251 14.015358,10.321237 13.609202,9.9475121 12.61188,8.9261135 11.879895,8.1764574 11.272974,7.5295859 11.263167,7.4886214 11.245401,7.4144127 12.133051,6.3320547 13.499645,4.7615659 l 0.719131,-0.8264256 1.65627,-0.041545 c 2.776077,-0.069634 2.906941,-0.065345 3.058717,0.1002491 0.255213,0.2784473 2.354058,3.3336439 2.354058,3.4266982 0,0.063818 -1.9095,2.5417459 -2.261033,2.9341064 l -0.311108,0.34724 -0.907854,0.01023 c -0.49932,0.0056 -1.442884,-0.02959 -2.096808,-0.07826 z"
       id="path4280"
       inkscape:connector-curvature="0"
       transform="translate(0,1020.3622)" />
    <path
       style="opacity:0.6;fill:#ffffff;fill-opacity:1;stroke:#73b9c5;stroke-width:0.07999145;stroke-linecap:round;stroke-linejoin:round;stroke-miterlimit:4;stroke-dasharray:none;stroke-dashoffset:0;stroke-opacity:1"
       d="M 16.615866,10.628012 C 15.866303,10.598027 14.71989,10.482247 14.41676,10.405918 14.188694,10.348491 13.999894,10.201342 13.357201,9.5801065 12.927077,9.1643437 12.292012,8.5195037 11.945945,8.1471289 L 11.316731,7.4700839 11.772374,6.8996582 C 12.022977,6.585924 12.680275,5.8033909 13.233036,5.1606956 l 1.00502,-1.1685369 2.044664,-0.046467 c 2.31179,-0.052538 2.518732,-0.039407 2.68007,0.170053 0.2216,0.2876955 1.999422,2.8655576 2.130368,3.0890587 l 0.133496,0.2278518 -0.691192,0.9085698 c -0.380155,0.499713 -0.943926,1.2210854 -1.252824,1.6030493 l -0.561634,0.6944797 -0.815815,0.0041 c -0.448698,0.0023 -1.028893,-0.0044 -1.289323,-0.01484 z"
       id="path4282"
       inkscape:connector-curvature="0"
       transform="translate(0,1020.3622)" />
    <path
       style="opacity:0.6;fill:#ffffff;fill-opacity:1;stroke:#73b9c5;stroke-width:0.07999145;stroke-linecap:round;stroke-linejoin:round;stroke-miterlimit:4;stroke-dasharray:none;stroke-dashoffset:0;stroke-opacity:1"
       d="M 16.237059,10.540326 C 14.95644,10.462258 14.409242,10.369528 14.122052,10.18191 13.809406,9.9776625 11.438834,7.5818856 11.438834,7.4701633 c 0,-0.075395 0.886897,-1.1621885 2.241276,-2.7464369 l 0.568211,-0.664649 1.918198,-0.048476 c 2.374797,-0.060015 2.570376,-0.044455 2.794895,0.2223657 0.155304,0.1845644 1.798347,2.5597679 2.078528,3.0047452 l 0.124436,0.1976264 -0.901663,1.1597661 c -0.495914,0.6378711 -1.055653,1.351537 -1.243865,1.5859242 l -0.342203,0.426158 -0.825203,-0.0094 c -0.453862,-0.0052 -1.180335,-0.03103 -1.614385,-0.05748 z"
       id="path4284"
       inkscape:connector-curvature="0"
       transform="translate(0,1020.3622)" />
    <path
       style="opacity:0.6;fill:#ffffff;fill-opacity:1;stroke:#73b9c5;stroke-width:0.07999145;stroke-linecap:round;stroke-linejoin:round;stroke-miterlimit:4;stroke-dasharray:none;stroke-dashoffset:0;stroke-opacity:1"
       d="M 16.615866,10.500925 C 15.652232,10.446061 14.778555,10.345939 14.473869,10.255457 14.16943,10.165049 14.029215,10.051579 13.127033,9.165525 12.573173,8.6215653 11.978761,8.0138603 11.806118,7.8150696 L 11.492223,7.4536319 12.122174,6.678648 c 0.346473,-0.4262412 0.972404,-1.1765479 1.390957,-1.6673485 l 0.761006,-0.8923646 1.871879,-0.046794 c 2.090553,-0.052261 2.514329,-0.026423 2.718913,0.1657737 0.112275,0.1054771 1.74317,2.424534 2.13065,3.0296855 l 0.105252,0.1643796 -1.216546,1.5542562 -1.216547,1.5542561 -0.852316,-0.0099 c -0.468774,-0.0054 -1.008574,-0.01879 -1.199556,-0.02967 z"
       id="path4286"
       inkscape:connector-curvature="0"
       transform="translate(0,1020.3622)" />
    <path
       style="opacity:0.6;fill:#ffffff;fill-opacity:1;stroke:#73b9c5;stroke-width:0.07999145;stroke-linecap:round;stroke-linejoin:round;stroke-miterlimit:4;stroke-dasharray:none;stroke-dashoffset:0;stroke-opacity:1"
       d="M 16.205491,10.414134 C 15.240144,10.344426 14.539415,10.235129 14.313554,10.119036 14.050397,9.9837723 12.981034,8.9856108 12.203492,8.1494669 l -0.644553,-0.6931307 0.587077,-0.713706 c 0.322892,-0.3925383 0.937551,-1.1293541 1.365909,-1.6373687 l 0.778832,-0.9236628 1.790879,-0.046313 c 1.95552,-0.050571 2.56863,-0.016861 2.735916,0.1504251 0.09334,0.093337 0.817162,1.1098739 1.888854,2.6526994 l 0.32407,0.4665354 -0.189619,0.2595117 C 20.736567,7.8071889 20.204159,8.49218 19.657728,9.1866599 l -0.99351,1.2626911 -0.882123,0.0075 c -0.485168,0.0041 -1.19464,-0.0151 -1.576604,-0.04268 z"
       id="path4288"
       inkscape:connector-curvature="0"
       transform="translate(0,1020.3622)" />
  </g>
</svg>
