<?xml version="1.0" encoding="UTF-8" standalone="no"?>
<!-- Created with Inkscape (http://www.inkscape.org/) -->

<svg
   xmlns:dc="http://purl.org/dc/elements/1.1/"
   xmlns:cc="http://creativecommons.org/ns#"
   xmlns:rdf="http://www.w3.org/1999/02/22-rdf-syntax-ns#"
   xmlns:svg="http://www.w3.org/2000/svg"
   xmlns="http://www.w3.org/2000/svg"
   xmlns:sodipodi="http://sodipodi.sourceforge.net/DTD/sodipodi-0.dtd"
   xmlns:inkscape="http://www.inkscape.org/namespaces/inkscape"
   width="32"
   height="32"
   viewBox="0 0 32 32.000001"
   id="svg2"
   version="1.1"
   inkscape:version="0.91 r13725"
   sodipodi:docname="gk.svg">
  <defs
     id="defs4" />
  <sodipodi:namedview
     id="base"
     pagecolor="#ffffff"
     bordercolor="#666666"
     borderopacity="1.0"
     inkscape:pageopacity="0.0"
     inkscape:pageshadow="2"
     inkscape:zoom="15.839192"
     inkscape:cx="10.498129"
     inkscape:cy="7.0486469"
     inkscape:document-units="px"
     inkscape:current-layer="layer1"
     showgrid="false"
     units="px"
     inkscape:window-width="1861"
     inkscape:window-height="1056"
     inkscape:window-x="1979"
     inkscape:window-y="24"
     inkscape:window-maximized="1" />
  <metadata
     id="metadata7">
    <rdf:RDF>
      <cc:Work
         rdf:about="">
        <dc:format>image/svg+xml</dc:format>
        <dc:type
           rdf:resource="http://purl.org/dc/dcmitype/StillImage" />
        <dc:title />
      </cc:Work>
    </rdf:RDF>
  </metadata>
  <g
     inkscape:label="Layer 1"
     inkscape:groupmode="layer"
     id="layer1"
     transform="translate(0,-1020.3622)">
    <path
       style="fill:none;fill-rule:evenodd;stroke:#000000;stroke-width:1.85895097px;stroke-linecap:butt;stroke-linejoin:miter;stroke-opacity:1"
       d="m 12.331125,1023.1763 8.253315,-0.1233 4.795846,4.6931 -4.795846,4.5694 -7.91872,-0.3706 -5.5765658,-4.0755 5.7996258,-4.8164"
       id="path4138"
       inkscape:connector-curvature="0"
       sodipodi:nodetypes="ccccccc" />
    <path
       style="fill:none;fill-rule:evenodd;stroke:#000000;stroke-width:1.85895097px;stroke-linecap:butt;stroke-linejoin:miter;stroke-opacity:1"
       d="m 13.111845,1026.2639 2.119094,-0.2471 1.115313,0.3705"
       id="path4140"
       inkscape:connector-curvature="0" />
    <path
       style="fill:none;fill-rule:evenodd;stroke:#000000;stroke-width:1.85895097px;stroke-linecap:butt;stroke-linejoin:miter;stroke-opacity:1"
       d="m 19.023003,1026.6343 1.338375,0 1.226844,0.8645"
       id="path4142"
       inkscape:connector-curvature="0"
       sodipodi:nodetypes="ccc" />
    <path
       style="fill:none;fill-rule:evenodd;stroke:#000000;stroke-width:1.85895097px;stroke-linecap:butt;stroke-linejoin:miter;stroke-opacity:1"
       d="m 14.784814,1029.4749 3.45747,0.1233"
       id="path4144"
       inkscape:connector-curvature="0" />
    <path
       style="fill:none;fill-rule:evenodd;stroke:#000000;stroke-width:1.85895097px;stroke-linecap:butt;stroke-linejoin:miter;stroke-opacity:1"
       d="m 15.788594,1032.4389 -1.672969,11.9796 2.453688,5.1872"
       id="path4146"
       inkscape:connector-curvature="0"
       sodipodi:nodetypes="ccc" />
    <path
       style="fill:none;fill-rule:evenodd;stroke:#000000;stroke-width:1.85895097px;stroke-linecap:butt;stroke-linejoin:miter;stroke-opacity:1"
       d="m 13.892562,1043.9245 -3.505866,5.3272"
       id="path4148"
       inkscape:connector-curvature="0"
       sodipodi:nodetypes="cc" />
    <path
       style="fill:none;fill-rule:evenodd;stroke:#000000;stroke-width:1.96058297px;stroke-linecap:butt;stroke-linejoin:miter;stroke-opacity:1"
       d="m 14.855865,1036.4137 -5.0873217,1.8071"
       id="path4150"
       inkscape:connector-curvature="0" />
    <path
       style="fill:none;fill-rule:evenodd;stroke:#000000;stroke-width:1.85895097px;stroke-linecap:butt;stroke-linejoin:miter;stroke-opacity:1"
       d="m 15.706539,1036.3715 3.539527,3.3539"
       id="path4152"
       inkscape:connector-curvature="0"
       sodipodi:nodetypes="cc" />
    <path
       style="opacity:0.6;fill:#000000;fill-opacity:1;stroke:#73b9c5;stroke-width:0.07999145;stroke-linecap:round;stroke-linejoin:round;stroke-miterlimit:4;stroke-dasharray:none;stroke-dashoffset:0;stroke-opacity:1"
       d="M 16.389677,10.803557 13.006762,10.638754 10.848731,9.0630626 C 9.6618145,8.1964321 8.6982041,7.4672253 8.7073749,7.442603 c 0.00917,-0.024622 0.993618,-0.8552736 2.1876601,-1.8458919 2.12074,-1.7594378 2.178458,-1.8018756 2.493814,-1.8336026 0.177556,-0.017863 1.780492,-0.049065 3.562081,-0.069337 l 3.239251,-0.036858 1.892036,1.844603 c 1.040619,1.0145317 1.884209,1.8632034 1.874645,1.8859372 -0.0096,0.022734 -0.855501,0.8410475 -1.879859,1.8184748 -1.740029,1.6603105 -1.876995,1.7766565 -2.08344,1.7697855 -0.121534,-0.004 -1.743282,-0.08151 -3.603886,-0.172157 z m 1.858109,-1.0644698 c 0.02214,-0.2343869 0.04045,-0.660545 0.0407,-0.947018 l 4.49e-4,-0.5208599 -0.268322,-0.00132 c -0.147577,-7.241e-4 -0.920472,-0.028512 -1.717545,-0.061751 -1.130793,-0.047155 -1.460046,-0.043397 -1.498479,0.0171 -0.02709,0.042644 -0.04969,0.4816043 -0.05022,0.9754678 l -9.67e-4,0.8979339 0.899667,0.01939 c 0.494817,0.01067 1.271999,0.02565 1.727071,0.0333 l 0.827402,0.01391 0.04025,-0.4261578 z M 21.606564,7.167858 c 0.276103,-0.3984993 0.502006,-0.7514566 0.502006,-0.7843496 0,-0.032893 -0.325399,-0.2892643 -0.723109,-0.5697138 l -0.723109,-0.5099084 -0.841115,0 -0.841115,0 0.01743,0.9628017 0.01743,0.9628016 0.568211,0.031567 c 0.55756,0.030975 0.575903,0.037154 0.978585,0.3295956 0.225706,0.1639155 0.440167,0.2988656 0.476579,0.299889 0.03641,0.00102 0.292106,-0.3241841 0.568211,-0.7226834 z M 16.365176,6.0559567 C 16.528471,5.5659824 16.637152,5.1434904 16.607165,5.1152305 16.577227,5.0870162 16.279429,4.9771629 15.945392,4.871112 L 15.338053,4.6782923 14.177625,4.811259 c -0.638235,0.073132 -1.170673,0.1412714 -1.183195,0.1514217 -0.02991,0.024245 0.183817,1.8160678 0.221176,1.854269 0.01581,0.016171 0.451923,-0.018014 0.969129,-0.075966 l 0.940376,-0.1053681 0.429704,0.1501849 c 0.236338,0.082602 0.448657,0.1522997 0.471821,0.1548844 0.02316,0.00258 0.175506,-0.3955429 0.33854,-0.884728 z"
       id="path4967"
       inkscape:connector-curvature="0"
       transform="translate(0,1020.3622)" />
    <path
       style="opacity:0.6;fill:#000000;fill-opacity:1;stroke:#73b9c5;stroke-width:0.07999145;stroke-linecap:round;stroke-linejoin:round;stroke-miterlimit:4;stroke-dasharray:none;stroke-dashoffset:0;stroke-opacity:1"
       d="M 16.33176,10.740282 13.017197,10.574418 11.817641,9.695202 C 10.163881,8.4830763 8.8986122,7.5286017 8.8576086,7.4622566 8.8245818,7.408818 11.846545,4.8577764 12.733915,4.1900068 c 0.372101,-0.2800155 0.482097,-0.3297129 0.799321,-0.3611414 0.202315,-0.020044 1.777138,-0.054807 3.499609,-0.077251 l 3.131764,-0.040808 1.84008,1.8147272 c 1.012044,0.9980999 1.840081,1.8348981 1.840081,1.8595515 0,0.055597 -3.00804,2.9226939 -3.439675,3.2785079 -0.246227,0.202974 -0.362744,0.257452 -0.536643,0.25091 -0.122171,-0.0046 -1.713682,-0.083 -3.536692,-0.174221 z m 1.979474,-0.9949368 c 0.02246,-0.2656689 0.04083,-0.7167838 0.04083,-1.0024774 l 0,-0.5194428 -1.08907,-0.041599 C 15.5743,8.117324 14.827272,8.113169 14.772275,8.167974 c -0.02774,0.027649 -0.05954,0.4875069 -0.07065,1.0219072 l -0.0202,0.9716368 0.84095,0.01964 c 0.462523,0.0108 1.270042,0.02585 1.794487,0.03343 l 0.953538,0.01379 0.04083,-0.4830344 z M 21.195296,7.8134839 C 21.394852,7.6009283 22.14083,6.4831013 22.140459,6.3971838 22.140081,6.3116875 21.8055,6.0317524 21.14554,5.5647855 l -0.457953,-0.3240338 -0.883656,0 -0.883655,0 0,0.9708548 c 0,0.7008862 0.02194,0.9884296 0.07892,1.0340571 0.0434,0.034761 0.314254,0.076212 0.601887,0.092114 0.499311,0.027604 0.542151,0.042178 0.947018,0.32218 0.233227,0.1612977 0.444251,0.2937885 0.468941,0.294424 0.02469,6.352e-4 0.104906,-0.062768 0.178256,-0.1408973 z M 16.380043,6.1831349 C 16.528132,5.7516341 16.641774,5.3157254 16.632581,5.2144488 16.616808,5.0406843 16.580295,5.0183989 15.98452,4.8189075 L 15.353175,4.6075053 14.205727,4.7438421 c -0.631096,0.074985 -1.182309,0.1578828 -1.224918,0.1842167 -0.06068,0.037502 -0.05408,0.2348778 0.03042,0.9105922 0.05934,0.4744919 0.123514,0.9034119 0.142603,0.9531555 0.04297,0.111972 0.164878,0.1119012 1.173578,-6.818e-4 0.796819,-0.088934 0.809545,-0.088326 1.231123,0.058804 0.234291,0.081767 0.454393,0.1417118 0.489117,0.1332101 0.03472,-0.0085 0.184299,-0.3685037 0.332388,-0.8000045 z"
       id="path4969"
       inkscape:connector-curvature="0"
       transform="translate(0,1020.3622)" />
    <path
       style="opacity:0.6;fill:#000000;fill-opacity:1;stroke:#73b9c5;stroke-width:0.07999145;stroke-linecap:round;stroke-linejoin:round;stroke-miterlimit:4;stroke-dasharray:none;stroke-dashoffset:0;stroke-opacity:1"
       d="M 16.265702,10.677547 C 13.381604,10.528371 13.056537,10.500728 12.888004,10.390315 12.641034,10.228514 9.9064098,8.2042512 9.4000985,7.8084463 9.1816177,7.6376506 9.0128056,7.4659249 9.0249603,7.4268337 9.0686634,7.2862783 12.3629,4.5155249 12.975332,4.1042107 13.317274,3.8745594 13.475303,3.8635772 17.120942,3.8161124 l 3.030458,-0.039455 1.799334,1.8096443 1.799334,1.8096444 -0.978585,0.9532865 c -1.441327,1.4040657 -2.519745,2.3852054 -2.694879,2.4517924 -0.184244,0.07005 0.123308,0.08001 -3.810902,-0.123478 z m 2.108195,-0.9068925 c 0.0223,-0.286473 0.04072,-0.7650164 0.04093,-1.0634298 L 18.4152,8.1646548 17.458144,8.1232302 c -1.499252,-0.064893 -2.690715,-0.052071 -2.741127,0.029497 -0.02411,0.039007 -0.0582,0.5211336 -0.07576,1.0713927 l -0.03192,1.0004711 0.845427,0.01967 c 0.464985,0.01082 1.302887,0.02588 1.862005,0.03346 l 1.016579,0.01379 0.04055,-0.5208596 z m 2.809978,-1.8624688 c 0.162499,-0.1370379 1.019397,-1.4016251 1.019397,-1.5043986 0,-0.1039223 -0.378503,-0.4348285 -0.988198,-0.8639318 l -0.51469,-0.3622381 -0.921621,0 -0.921621,0 0,0.9113406 c 0,0.5012375 0.02713,0.9826884 0.06028,1.0698909 0.06342,0.1668049 0.123275,0.1855379 0.835323,0.2614254 0.27868,0.029701 0.455175,0.1005906 0.789181,0.316976 0.236622,0.1532955 0.448382,0.2793271 0.470578,0.2800701 0.0222,7.431e-4 0.09931,-0.048368 0.17137,-0.1091345 z M 16.242848,6.717378 c 0.158307,-0.3579605 0.46772,-1.3573709 0.46772,-1.5107466 0,-0.1577754 -0.189357,-0.2711239 -0.783728,-0.4691388 L 15.330427,4.5387974 14.268514,4.6728029 c -1.289553,0.1627319 -1.332234,0.1725193 -1.377753,0.3159386 -0.04591,0.1446562 0.150435,1.6953711 0.234842,1.8547426 0.05624,0.1061824 0.11187,0.1145262 0.513972,0.077085 1.267909,-0.1180593 1.57612,-0.1160074 1.966138,0.01309 0.208344,0.068962 0.401679,0.1282229 0.429633,0.1316902 0.02795,0.00347 0.12133,-0.1531197 0.207502,-0.3479711 z"
       id="path4971"
       inkscape:connector-curvature="0"
       transform="translate(0,1020.3622)" />
    <path
       style="opacity:0.6;fill:#000000;fill-opacity:1;stroke:#73b9c5;stroke-width:0.07999145;stroke-linecap:round;stroke-linejoin:round;stroke-miterlimit:4;stroke-dasharray:none;stroke-dashoffset:0;stroke-opacity:1"
       d="m 18.983411,10.752656 c -0.190982,-0.01132 -1.441046,-0.07736 -2.77792,-0.146771 C 13.041879,10.44164 13.110151,10.450016 12.711599,10.177213 12.100821,9.7591442 9.2150583,7.5929878 9.1684787,7.5176204 9.1060923,7.416677 9.2189448,7.2999562 10.16643,6.4854615 11.615888,5.239453 12.876323,4.2336519 13.16105,4.0958181 c 0.259583,-0.1256622 0.421407,-0.1383449 2.37178,-0.1858844 1.151253,-0.028061 2.665734,-0.052623 3.365511,-0.054581 l 1.272324,-0.00356 1.741491,1.7754186 1.741491,1.7754186 -1.025077,0.991176 c -1.293136,1.2503715 -2.09266,1.9878041 -2.407725,2.2207421 -0.258719,0.19128 -0.286974,0.194433 -1.237434,0.138109 z m -0.54638,-0.918867 c 0.0223,-0.2864729 0.04072,-0.7947372 0.04092,-1.1294763 l 3.79e-4,-0.6086164 -1.278475,-0.045519 c -1.490204,-0.053057 -2.412288,-0.027975 -2.508395,0.068235 -0.03975,0.039791 -0.08454,0.5055565 -0.107595,1.1187372 l -0.03949,1.0505635 0.84634,0.01968 c 0.465488,0.01082 1.332212,0.02588 1.926054,0.03347 l 1.079714,0.01379 0.04055,-0.5208595 z m 2.843335,-1.9607172 c 0.229129,-0.2429504 0.92649,-1.2749964 0.967506,-1.4318396 0.03298,-0.126104 -0.413174,-0.5461464 -1.076413,-1.0134239 l -0.444726,-0.3133257 -0.971795,0 -0.971795,0 0.02122,1.0395866 c 0.0168,0.8230298 0.04111,1.0594568 0.116724,1.134974 0.05294,0.052874 0.319093,0.1264851 0.597171,0.1651622 0.51788,0.07203 0.651738,0.1232294 1.152554,0.4408377 0.161972,0.1027194 0.321091,0.1867626 0.353597,0.1867626 0.03251,0 0.147689,-0.09393 0.255961,-0.2087339 z M 16.203679,6.9331866 c 0.122907,-0.2021042 0.473662,-1.235878 0.544652,-1.605246 0.05387,-0.2802672 -0.125998,-0.4218791 -0.836468,-0.6585721 L 15.322228,4.4729312 14.264414,4.6073527 c -1.267069,0.1610128 -1.328621,0.174911 -1.404768,0.3171936 -0.106395,0.1988008 0.121362,1.8538694 0.276457,2.0089644 0.07197,0.071973 0.243817,0.074426 1.025497,0.014639 0.862468,-0.065965 0.975073,-0.061982 1.380979,0.048853 0.243068,0.066371 0.463667,0.1245245 0.49022,0.1292297 0.02655,0.00471 0.10345,-0.082166 0.17088,-0.1930464 z"
       id="path4973"
       inkscape:connector-curvature="0"
       transform="translate(0,1020.3622)" />
    <path
       style="opacity:0.6;fill:#ffffff;fill-opacity:1;stroke:#73b9c5;stroke-width:0.07999145;stroke-linecap:round;stroke-linejoin:round;stroke-miterlimit:4;stroke-dasharray:none;stroke-dashoffset:0;stroke-opacity:1"
       d="M 15.574146,6.7188917 15.163772,6.5684814 14.228475,6.6686911 c -0.514413,0.055115 -0.945113,0.0902 -0.957111,0.077966 -0.02938,-0.029955 -0.232715,-1.7069262 -0.209403,-1.7269915 0.0101,-0.0087 0.520369,-0.074384 1.133921,-0.1459725 l 1.11555,-0.1301601 0.604866,0.1992388 c 0.461028,0.1518593 0.604866,0.2257683 0.604866,0.3108003 0,0.1096889 -0.41471,1.4016605 -0.495379,1.5432855 -0.02942,0.051655 -0.159027,0.029282 -0.451639,-0.077966 z"
       id="path4975"
       inkscape:connector-curvature="0"
       transform="translate(0,1020.3622)" />
    <path
       style="opacity:0.6;fill:#ffffff;fill-opacity:1;stroke:#73b9c5;stroke-width:0.07999145;stroke-linecap:round;stroke-linejoin:round;stroke-miterlimit:4;stroke-dasharray:none;stroke-dashoffset:0;stroke-opacity:1"
       d="m 15.484407,6.6287524 c -0.298023,-0.1163681 -0.347952,-0.1174101 -1.222768,-0.02552 -0.501632,0.052691 -0.921834,0.086026 -0.933782,0.074078 -0.0271,-0.027095 -0.220947,-1.579045 -0.199802,-1.5995935 0.0085,-0.00824 0.500873,-0.073963 1.094216,-0.1460558 l 1.078804,-0.1310784 0.475881,0.1600008 c 0.762298,0.2563004 0.737354,0.1981733 0.454214,1.0584547 -0.171254,0.5203341 -0.270984,0.7360746 -0.339299,0.7339896 -0.05321,-0.00162 -0.236574,-0.057548 -0.407464,-0.1242751 z"
       id="path4977"
       inkscape:connector-curvature="0"
       transform="translate(0,1020.3622)" />
    <path
       style="opacity:0.6;fill:#ffffff;fill-opacity:1;stroke:#73b9c5;stroke-width:0.07999145;stroke-linecap:round;stroke-linejoin:round;stroke-miterlimit:4;stroke-dasharray:none;stroke-dashoffset:0;stroke-opacity:1"
       d="M 20.581461,7.5188229 C 20.139117,7.2081767 20.123803,7.2029374 19.60509,7.1847908 l -0.526977,-0.018436 -0.01752,-0.8996671 -0.01752,-0.8996671 0.79493,0 0.794929,0 0.614288,0.4355397 c 0.337858,0.2395468 0.650995,0.4797702 0.695861,0.5338298 0.06924,0.083426 0.02351,0.182259 -0.302354,0.653531 -0.21116,0.3053825 -0.434766,0.6203237 -0.496902,0.6998694 L 21.030854,7.8344192 20.581461,7.5188229 Z"
       id="path4979"
       inkscape:connector-curvature="0"
       transform="translate(0,1020.3622)" />
    <path
       style="opacity:0.6;fill:#ffffff;fill-opacity:1;stroke:#73b9c5;stroke-width:0.07999145;stroke-linecap:round;stroke-linejoin:round;stroke-miterlimit:4;stroke-dasharray:none;stroke-dashoffset:0;stroke-opacity:1"
       d="M 20.601858,7.4624052 C 20.201603,7.1871992 20.148241,7.1687715 19.659414,7.1369509 l -0.518167,-0.033731 -0.01762,-0.8365325 -0.01762,-0.8365326 0.765933,0 0.765932,0 0.62486,0.4528647 c 0.343673,0.2490756 0.624859,0.492124 0.624859,0.5401077 0,0.080075 -0.280913,0.5245645 -0.695346,1.1002488 l -0.16611,0.230753 -0.424277,-0.2917238 z"
       id="path4981"
       inkscape:connector-curvature="0"
       transform="translate(0,1020.3622)" />
    <path
       style="opacity:0.6;fill:#ffffff;fill-opacity:1;stroke:#73b9c5;stroke-width:0.07999145;stroke-linecap:round;stroke-linejoin:round;stroke-miterlimit:4;stroke-dasharray:none;stroke-dashoffset:0;stroke-opacity:1"
       d="m 15.714428,10.054893 -0.901437,-0.0194 0.01755,-0.8663559 0.01755,-0.8663555 0.599778,-0.02058 c 0.329878,-0.011319 1.08986,-0.00116 1.688849,0.02257 l 1.08907,0.04315 -4.48e-4,0.450939 c -2.47e-4,0.2480165 -0.01856,0.6427101 -0.0407,0.8770971 l -0.04025,0.4261583 -0.764269,-0.01391 c -0.420347,-0.0076 -1.169915,-0.02264 -1.665706,-0.03331 z"
       id="path4983"
       inkscape:connector-curvature="0"
       transform="translate(0,1020.3622)" />
    <path
       style="opacity:0.6;fill:#ffffff;fill-opacity:1;stroke:#73b9c5;stroke-width:0.07999145;stroke-linecap:round;stroke-linejoin:round;stroke-miterlimit:4;stroke-dasharray:none;stroke-dashoffset:0;stroke-opacity:1"
       d="m 15.651193,9.9917997 -0.77527,-0.019875 0.01765,-0.803007 0.01765,-0.8030071 0.599778,-0.020554 c 0.329878,-0.011305 1.06145,-0.00118 1.625715,0.022505 l 1.025936,0.043058 -5.49e-4,0.4825718 c -3.02e-4,0.2654145 -0.01846,0.6317271 -0.04036,0.8140281 l -0.03981,0.3314555 -0.827738,-0.01365 c -0.455256,-0.0075 -1.17661,-0.02259 -1.603008,-0.033525 z"
       id="path4985"
       inkscape:connector-curvature="0"
       transform="translate(0,1020.3622)" />
  </g>
</svg>
